<svg width="120" height="120" viewBox="0 0 120 120" fill="none" xmlns="http://www.w3.org/2000/svg">
<path d="M55.7793 21.0479C56.5604 20.9277 57.1849 21.039 57.7051 21.3262C58.3161 21.6635 58.7874 22.0955 59.1387 22.6201C59.4701 23.1152 59.6646 23.7121 59.6963 24.4443C59.7238 25.0818 59.5321 25.7162 59.0518 26.3711L59.0361 26.3926L59.0215 26.415C57.7076 28.4245 56.7184 30.5547 56.0576 32.8037C55.3968 35.0529 55.0693 37.4122 55.0723 39.877C55.0723 46.8194 57.5141 52.7533 62.3799 57.6191C67.2456 62.485 73.1788 64.9268 80.1211 64.9268C82.5202 64.9268 84.8984 64.5781 87.2529 63.8838C89.5975 63.1924 91.7071 62.2277 93.5732 60.9844C94.2397 60.5604 94.8747 60.3908 95.498 60.4189C96.2186 60.4515 96.8249 60.6198 97.3389 60.9043L97.3574 60.915L97.376 60.9238C97.9329 61.2023 98.3617 61.6136 98.6758 62.1826C98.9569 62.692 99.0768 63.3519 98.9492 64.2275L98.9434 64.2705C97.9295 74.2643 93.688 82.5306 86.1982 89.1172C78.6991 95.712 70.0078 98.9999 60.0811 99C49.1321 99 39.9066 95.2221 32.3438 87.6562C24.7807 80.0901 21.0029 70.8644 21 59.918L21.0098 58.9844C21.2068 49.3755 24.4573 41.0334 30.7686 33.9141C37.2796 26.5694 45.5881 22.2826 55.7471 21.0518L55.7637 21.0498L55.7793 21.0479Z" fill="#4B5BD4" stroke="#7C8CF8" stroke-width="2"/>
</svg>
